<?xml version="1.0" encoding="UTF-8" standalone="no"?>
<!DOCTYPE svg PUBLIC "-//W3C//DTD SVG 1.1//EN" "http://www.w3.org/Graphics/SVG/1.1/DTD/svg11.dtd">
<svg width="100%" height="100%" viewBox="0 0 12 12" version="1.1" xmlns="http://www.w3.org/2000/svg" xmlns:xlink="http://www.w3.org/1999/xlink" xml:space="preserve" xmlns:serif="http://www.serif.com/" style="fill-rule:evenodd;clip-rule:evenodd;stroke-linejoin:round;stroke-miterlimit:2;">
    <g transform="matrix(1,0,0,1,-2.1097,-8.53369)">
        <g transform="matrix(1.15927,0,0,1.15935,-9.79368,1.55209)">
            <path d="M20.609,6.849C20.609,6.63 20.521,6.419 20.366,6.264C20.211,6.109 20,6.022 19.781,6.022L11.096,6.022C10.876,6.022 10.666,6.109 10.511,6.264C10.355,6.419 10.268,6.63 10.268,6.849L10.268,15.535C10.268,15.754 10.355,15.965 10.511,16.12C10.666,16.275 10.876,16.362 11.096,16.362L19.781,16.362C20,16.362 20.211,16.275 20.366,16.12C20.521,15.965 20.609,15.754 20.609,15.535L20.609,6.849Z" style="fill:rgb(255,62,0);"/>
        </g>
        <g transform="matrix(0.797697,0,0,1.09111,2.54084,6.84995)">
            <path d="M4.546,9.786L4.546,4.287L6.598,4.287C7.243,4.287 7.788,4.366 8.234,4.523C8.68,4.68 9.039,4.89 9.311,5.153C9.583,5.417 9.781,5.711 9.905,6.037C10.028,6.363 10.09,6.696 10.09,7.037C10.09,7.354 10.033,7.673 9.918,7.995C9.804,8.317 9.613,8.614 9.346,8.885C9.079,9.156 8.718,9.374 8.264,9.539C7.809,9.704 7.239,9.786 6.555,9.786L4.546,9.786ZM5.481,9.15L6.673,9.15C7.143,9.15 7.534,9.088 7.847,8.964C8.161,8.839 8.411,8.674 8.599,8.469C8.787,8.263 8.922,8.035 9.002,7.785C9.083,7.535 9.123,7.286 9.123,7.037C9.123,6.77 9.079,6.51 8.992,6.257C8.904,6.004 8.766,5.777 8.578,5.576C8.39,5.374 8.149,5.214 7.855,5.094C7.562,4.975 7.207,4.916 6.792,4.916L5.481,4.916L5.481,9.15Z" style="fill:white;fill-rule:nonzero;stroke:white;stroke-width:0.52px;"/>
        </g>
    </g>
</svg>
